<?xml version="1.0" encoding="UTF-8" standalone="no"?>
<!-- Created with Inkscape (http://www.inkscape.org/) -->

<svg
   width="250mm"
   height="250mm"
   viewBox="0 0 250 250"
   version="1.1"
   id="svg1"
   xml:space="preserve"
   xmlns="http://www.w3.org/2000/svg"
   xmlns:svg="http://www.w3.org/2000/svg"><defs
     id="defs1" /><g
     id="layer1"><path
       style="fill:#000000"
       d="m 57.994339,217.92867 -1.056641,1.18655 -0.565831,-0.92197 -0.565831,-0.92197 -1.835967,-3.70417 -1.835966,-3.70416 -0.799795,-2.51354 -0.799796,-2.51355 -0.656874,-2.51354 -0.656874,-2.51354 -0.402884,-2.38125 -0.402885,-2.38125 -0.270873,-3.60085 -0.270873,-3.60086 0.265574,-3.27831 0.265573,-3.27831 0.557307,-3.30729 0.557308,-3.30729 0.793156,-2.51355 0.793156,-2.51354 1.37742,-2.91041 1.37742,-2.91042 2.134535,-3.175 2.134535,-3.175 0.843491,-1.05833 0.843491,-1.05834 1.987105,-2.05052 1.987108,-2.05052 h 0.187463 0.187466 l 0.944564,1.26521 0.944566,1.26521 1.274224,2.24052 1.274224,2.24052 1.553361,3.57187 1.55336,3.57188 0.516378,1.96316 0.516378,1.96317 0.431022,3.3285 0.431021,3.3285 -0.148285,5.15938 -0.148285,5.15937 -0.398477,2.38125 -0.398476,2.38125 -0.520204,1.71979 -0.520205,1.71979 -0.680942,2.04416 -0.680943,2.04415 -2.132461,4.25865 -2.132461,4.25865 -2.282087,3.35449 -2.282088,3.35449 -1.11428,1.45521 -1.114281,1.4552 z m 40.61475,-21.1626 h -0.212628 l -0.234076,-0.59531 -0.234077,-0.59531 -1.773292,-3.70417 -1.773296,-3.70416 -0.877859,-2.03043 -0.87786,-2.03042 -1.344803,-4.84875 -1.344803,-4.84874 -0.526663,-1.98437 -0.526665,-1.98438 -0.248318,-1.19062 -0.248317,-1.19063 -0.444106,-4.49791 -0.444107,-4.49792 0.01033,-4.63021 0.01033,-4.63021 0.697536,-4.60316 0.697535,-4.60317 0.771748,-2.99313 0.771747,-2.99314 1.224181,-3.25161 1.22418,-3.25162 1.300804,-2.67904 1.300804,-2.67904 2.59581,-3.93554 2.595806,-3.93554 1.67925,-2.11667 1.67925,-2.11667 3.06299,-3.04759 3.06299,-3.04759 1.54462,-1.16972 1.54461,-1.16971 0.43976,0.2734 0.43976,0.2734 1.11313,1.56266 1.11313,1.56265 1.89581,3.83646 1.89582,3.83646 1.38415,3.57187 1.38416,3.57188 0.56038,1.71979 0.56038,1.71979 0.68659,4.10104 0.68658,4.10104 0.15135,5.45788 0.15134,5.45788 -0.32255,2.61191 -0.32255,2.61192 -0.65945,3.175 -0.65946,3.175 -0.66055,2.36599 -0.66056,2.366 -1.2745,3.32254 -1.2745,3.32255 -1.31534,2.8007 -1.31534,2.80071 -1.66314,2.88712 -1.66313,2.88712 -1.85647,2.77884 -1.85647,2.77884 -2.18853,2.95438 -2.18852,2.95439 -1.91191,2.20499 -1.91191,2.20499 -1.60424,1.65365 -1.604238,1.65364 z M 150.1963,160.78274 h -0.47068 l -0.27847,-0.7276 -0.27847,-0.72761 -0.75881,-2.38125 -0.75881,-2.38125 -1.86168,-7.36594 -1.86168,-7.36595 -0.6477,-3.34968 -0.6477,-3.34968 -0.53923,-3.83645 -0.53922,-3.83646 -0.30947,-3.30729 -0.30947,-3.30729 0.16505,-5.29167 0.16505,-5.29167 0.4149,-3.57187 0.4149,-3.57188 0.52017,-3.271147 0.52018,-3.27115 0.66564,-3.07868 0.66563,-3.07869 0.65659,-2.41014 0.65659,-2.41013 0.76569,-2.08795 0.76569,-2.08794 1.73155,-4.149102 1.73155,-4.149102 1.37093,-2.597175 1.37093,-2.597175 1.54759,-2.456463 1.54758,-2.456463 2.22988,-2.968092 2.22988,-2.968093 1.36829,-1.5875 1.36828,-1.587499 4.67345,-4.7261 4.67344,-4.726099 3.43958,-2.583578 3.43959,-2.583578 3.0427,-1.994329 3.04271,-1.994329 2.30968,-1.206958 2.30968,-1.206958 0.36653,0.140649 0.36653,0.14065 1.47243,3.094273 1.47243,3.094274 0.9183,2.248958 0.91831,2.248958 0.52955,1.719792 0.52956,1.719792 0.69865,1.847441 0.69865,1.847442 0.8848,3.576516 0.88479,3.576517 0.55938,3.174999 0.55938,3.175 0.26159,3.175 0.26159,3.175 0.003,3.742052 0.003,3.742053 -0.396,3.798577 -0.39599,3.79857 -0.54004,3.79537 -0.54004,3.79537 -0.65943,3.0838 -0.65944,3.08379 -0.82687,2.513537 -0.82687,2.51354 -1.82362,4.36563 -1.82362,4.36562 -2,3.68877 -2,3.68877 -2.24677,3.71957 -2.24678,3.71956 -1.4802,1.98437 -1.4802,1.98438 -1.71356,2.11666 -1.71356,2.11667 -1.47446,1.71979 -1.47445,1.71979 -4.2354,4.33018 -4.2354,4.33018 -3.57188,3.21582 -3.57187,3.21582 -1.5875,1.34812 -1.5875,1.34811 -3.17389,2.54912 -3.17388,2.54911 z"
       id="path2" /></g></svg>
